HIERARCHY
ROOT hip
{
	OFFSET 0.000000 0.000000 0.000000 
	CHANNELS 6 Xposition Yposition Zposition Xrotation Zrotation Yrotation
	JOINT abdomen
	{
		OFFSET 0.000000 3.402643 0.000000 
		CHANNELS 3 Xrotation Zrotation Yrotation
		JOINT chest
		{
			OFFSET 0.000000 8.438565 -0.680529 
			CHANNELS 3 Xrotation Zrotation Yrotation
			JOINT neck
			{
				OFFSET 0.000000 10.207942 -0.272212 
				CHANNELS 3 Xrotation Zrotation Yrotation
				JOINT head
				{
					OFFSET 0.000000 3.130431 0.000000 
					CHANNELS 3 Xrotation Zrotation Yrotation
					End Site
					{
						OFFSET 0.000000 3.130435 0.000000 
					}
				}
			}
			JOINT lCollar
			{
				OFFSET 3.470700 6.669187 -0.816635 
				CHANNELS 3 Zrotation Yrotation Xrotation
				JOINT lShldr
				{
					OFFSET 3.198488 0.000000 0.000000 
					CHANNELS 3 Zrotation Yrotation Xrotation
					JOINT lForeArm
					{
						OFFSET 10.139888 0.000000 0.000000 
						CHANNELS 3 Yrotation Zrotation Xrotation
						JOINT lHand
						{
							OFFSET 8.370511 0.000000 0.000000 
							CHANNELS 3 Zrotation Yrotation Xrotation
							End Site
							{
								OFFSET 4.083176 0.000000 0.000000 
							}
						}
					}
				}
			}
			JOINT rCollar
			{
				OFFSET -3.470700 6.669187 -0.816635 
				CHANNELS 3 Zrotation Yrotation Xrotation
				JOINT rShldr
				{
					OFFSET -3.198488 0.000000 0.000000 
					CHANNELS 3 Zrotation Yrotation Xrotation
					JOINT rForeArm
					{
						OFFSET -10.139888 0.000000 0.000000 
						CHANNELS 3 Yrotation Zrotation Xrotation
						JOINT rHand
						{
							OFFSET -8.370511 0.000000 0.000000 
							CHANNELS 3 Zrotation Yrotation Xrotation
							End Site
							{
								OFFSET -4.083176 0.000000 0.000000 
							}
						}
					}
				}
			}
		}
	}
	JOINT lThigh
	{
		OFFSET 5.308129 -1.633274 1.361059 
		CHANNELS 3 Xrotation Zrotation Yrotation
		JOINT lShin
		{
			OFFSET -2.041588 -20.007561 0.000000 
			CHANNELS 3 Xrotation Zrotation Yrotation
			JOINT lFoot
			{
				OFFSET 0.000000 -19.190928 -1.224953 
				CHANNELS 3 Xrotation Yrotation Zrotation
				End Site
				{
					OFFSET 0.000000 -2.449906 4.627600 
				}
			}
		}
	}
	JOINT rThigh
	{
		OFFSET -5.308129 -1.633274 1.361059 
		CHANNELS 3 Xrotation Zrotation Yrotation
		JOINT rShin
		{
			OFFSET 2.041588 -20.007561 0.000000 
			CHANNELS 3 Xrotation Zrotation Yrotation
			JOINT rFoot
			{
				OFFSET 0.000000 -19.190928 -1.224953 
				CHANNELS 3 Xrotation Yrotation Zrotation
				End Site
				{
					OFFSET 0.000000 -2.449906 4.627600 
				}
			}
		}
	}
}
MOTION
Frames: 8
Frame Time: 0.016667
0.024707 53.089455 -0.075568 -8.357224 1.937669 4.387537 26.231190 -0.841268 -1.158408 -0.888483 1.903077 -3.125814 -1.784690 1.440413 -0.010316 16.378620 -2.657555 11.799607 -3.999228 -6.845338 0.263903 -70.077972 14.965513 -21.689404 -23.679216 -5.000000 34.574436 -23.537001 0.701196 12.965341 4.797006 6.347860 0.261099 71.045921 -10.632897 -18.323362 24.321722 5.000000 27.900385 19.061733 -17.725510 -4.051894 15.995699 5.282568 -7.865785 0.352319 -5.481378 -0.253929 -10.840225 6.305485 1.555131 17.838263 -7.195548 1.657608 -0.077338 2.539671 0.066998 -7.561368 -17.778341 4.964405 
0.024707 53.089455 -0.073479 -8.359616 1.928058 4.338407 26.221239 -0.832126 -1.154978 -0.899871 1.903018 -3.174940 -1.784688 1.430758 -0.008857 16.397795 -2.685369 11.887849 -3.921598 -6.962605 0.266570 -70.032829 15.048640 -21.686531 -23.682142 -5.000000 34.494465 -23.594654 0.694798 12.919873 4.709190 6.357259 0.255846 71.153717 -10.663536 -18.381569 24.094271 5.000000 27.997053 19.040594 -17.717663 -4.042811 16.009779 5.280147 -7.816485 0.323303 -5.493146 -0.260991 -10.987093 6.311975 1.545876 17.829521 -7.185592 1.699660 -0.077630 2.509980 0.048014 -7.564375 -17.735029 4.985269 
0.023454 53.089455 -0.071394 -8.372487 1.908705 4.289605 26.201429 -0.804816 -1.144024 -0.891404 1.902970 -3.204215 -1.804221 1.440413 -0.010316 16.460724 -2.732067 11.996065 -3.824291 -7.079977 0.267518 -70.007614 15.097046 -21.696125 -23.646713 -5.000000 34.463631 -23.608397 0.671662 12.909554 4.640769 6.366749 0.249598 71.241989 -10.674476 -18.420200 23.840340 5.000000 28.100460 19.027412 -17.731127 -4.063693 16.036856 5.299232 -7.783479 0.303015 -5.514210 -0.278510 -11.088357 6.356356 1.552213 17.820488 -7.176389 1.741505 -0.067656 2.500494 0.048778 -7.559369 -17.727043 4.988130 
0.021369 53.089455 -0.069307 -8.395494 1.879586 4.250562 26.191599 -0.764586 -1.137944 -0.863356 1.893150 -3.223720 -1.843286 1.450069 -0.011776 16.552771 -2.778717 12.103820 -3.707212 -7.187708 0.266002 -69.999809 15.134879 -21.701710 -23.593248 -5.000000 34.464264 -23.595482 0.637140 12.912252 4.582045 6.376283 0.242853 71.330574 -10.665887 -18.458673 23.571436 5.000000 28.199518 19.002441 -17.766935 -4.076072 16.083197 5.321709 -7.751436 0.294264 -5.514701 -0.277652 -11.155005 6.319959 1.538539 17.814428 -7.153928 1.825222 -0.057374 2.480471 0.010676 -7.535520 -17.765566 5.029187 
0.019700 53.089455 -0.067638 -8.417741 1.860202 4.211517 26.191292 -0.733845 -1.136019 -0.844415 1.883355 -3.253002 -1.872583 1.450069 -0.011776 16.627176 -2.815774 12.212056 -3.609756 -7.295360 0.265522 -69.980209 15.160441 -21.689920 -23.546072 -5.000000 34.441467 -23.575048 0.591682 12.918880 4.504359 6.405253 0.246898 71.428757 -10.667227 -18.497173 23.305418 5.000000 28.286894 18.974514 -17.805935 -4.079620 16.109348 5.339570 -7.738336 0.274870 -5.525350 -0.266048 -11.197429 6.331196 1.524767 17.820608 -7.127956 1.901512 -0.048433 2.460576 -0.017689 -7.534776 -17.817532 5.037265 
0.019703 53.089455 -0.067643 -8.439567 1.850578 4.162398 26.210678 -0.720201 -1.172783 -0.864428 1.912655 -3.272541 -1.823981 1.390674 -0.012671 16.670242 -2.814522 12.329096 -3.560977 -7.344318 0.264844 -69.955658 15.194236 -21.644224 -23.479525 -5.000000 34.410545 -23.533649 0.546701 12.912967 4.455539 6.492941 0.249570 71.536858 -10.668654 -18.545383 23.024435 5.000000 28.369648 18.937607 -17.844807 -4.024137 16.150911 5.340752 -7.719798 0.274856 -5.534811 -0.246388 -11.246901 6.357464 1.551725 17.839598 -7.127811 1.941477 -0.048433 2.460761 -0.007926 -7.576566 -17.779701 5.060407 
0.019704 53.089455 -0.067643 -8.460676 1.850693 4.113595 26.239882 -0.694245 -1.214985 -0.894188 1.941955 -3.292081 -1.765379 1.323084 -0.002454 16.705652 -2.803723 12.446617 -3.502354 -7.393321 0.263331 -69.930115 15.215464 -21.590221 -23.407492 -5.000000 34.373940 -23.482645 0.503441 12.915939 4.387338 6.580554 0.253237 71.635048 -10.679681 -18.593737 22.746281 5.000000 28.440578 18.898314 -17.896029 -3.959961 16.176327 5.329489 -7.692636 0.264754 -5.534999 -0.226034 -11.274433 6.367691 1.558762 17.857948 -7.156117 1.984975 -0.057795 2.470324 -0.008677 -7.606613 -17.712681 5.087564 
0.021374 53.089455 -0.069317 -8.463261 1.841086 4.055031 26.239918 -0.697674 -1.205842 -0.923153 1.941967 -3.292087 -1.716550 1.313428 -0.000994 16.786083 -2.842080 12.427589 -3.444174 -7.500815 0.265204 -69.905525 15.249189 -21.544487 -23.378832 -5.000000 34.296890 -23.496256 0.484213 12.914460 4.318824 6.619359 0.247050 71.762688 -10.710497 -18.671377 22.515295 5.000000 28.493572 18.932262 -17.920902 -3.919349 16.203981 5.319170 -7.625935 0.245365 -5.526786 -0.263504 -11.274307 6.352597 1.540410 17.835417 -7.154879 2.024405 -0.038185 2.471254 0.021770 -7.606545 -17.762342 5.021221 
